<svg xmlns="http://www.w3.org/2000/svg" width="159" height="44" viewBox="0 0 159 44">
    <g fill="none" fill-rule="evenodd">
        <path fill="#6E52B6" d="M113.473 16.619c0-.553-.114-1.08-.317-1.56a4.065 4.065 0 0 0-3.745-2.482H96.902V40.41h3.982V16.639h8.607v11.825h-2.047a4.063 4.063 0 0 0-4.062 4.063H113.473V16.639h.001v-.02zM90.918 20.619a4.15 4.15 0 0 0-.884-.1H77.948v-3.776h11.996a4.166 4.166 0 0 0 4.165-4.166H78.135c-.065 0-.123.016-.186.019v-.02a3.981 3.981 0 0 0-3.98 3.983v4.022a3.983 3.983 0 0 0 2.435 3.67c.552.27 1.164.436 1.821.436H90.34v3.765H78.133a4.167 4.167 0 0 0-4.166 4.167h15.977c.343 0 .672-.054.992-.132 1.914-.29 3.386-1.927 3.386-3.922v-4.023c0-2.001-1.48-3.641-3.404-3.923M67.212 16.639a4.062 4.062 0 0 0 4.062-4.062H51.478V32.527h19.796a4.062 4.062 0 0 0-4.062-4.063H55.46v-3.821h13.057V20.58H55.46v-3.942h11.753zM132.287 16.639a4.062 4.062 0 0 0 4.062-4.062h-19.797V32.527h19.797a4.063 4.063 0 0 0-4.062-4.063h-11.753v-3.821h13.057V20.58h-13.057v-3.942h11.753zM143.074 20.369h11.867v-3.626h-11.867v3.626zm12.052-7.652v-.019h-16.034v19.829h3.982v-7.709h5.329l4.771 6.438a2.981 2.981 0 0 0 2.522 1.202l3.144-.137-5.615-7.503h1.248a4.42 4.42 0 0 0 1.758-.364 3.969 3.969 0 0 0 2.691-3.749V16.68a3.972 3.972 0 0 0-3.796-3.963z"/>
        <path fill="#FFF" d="M30.613 15.576l7.75-4.374a2.604 2.604 0 0 0-.271-.18L22.226 2.07a2.41 2.41 0 0 0-1.187-.305c-.424 0-.834.105-1.19.305l-6.584 3.716 17.348 9.79zm.89 10.304l7.795-4.4v-8.407c0-.118-.01-.235-.028-.351l-7.767 4.385v8.773zm-1.78 0v-8.773L11.465 6.803l-7.48 4.22c-.366.207-.67.505-.881.864a2.34 2.34 0 0 0-.324 1.186v7.404l8.27-4.667.033-.012a.65.65 0 0 1 .098-.04l.03-.015s.059-.013.072-.014a.919.919 0 0 1 .13-.018l.01-.001.043-.001c.06 0 .123.007.187.02l.07.017.012.005a.98.98 0 0 1 .135.055l.052.018.022.022.032.018.003.004L29.723 25.88zM2.78 30.918c0 .118.009.235.026.35l7.769-4.383V18.11L2.78 22.51v8.408zm27.833 6.27l7.479-4.221c.366-.206.67-.504.88-.863.213-.36.326-.77.326-1.186v-7.404l-8.243 4.65a.815.815 0 0 1-.137.06.865.865 0 0 1-.532.028l-.031-.007-.053-.023a.658.658 0 0 1-.128-.055L12.354 18.11v8.774l18.259 10.303zm-26.9-4.4c.087.066.177.126.272.18L19.85 41.92c.354.199.765.305 1.188.305.424 0 .835-.106 1.189-.305l6.584-3.716-17.346-9.79-7.751 4.374zM21.04 44a4.217 4.217 0 0 1-2.068-.542L3.105 34.504a4.15 4.15 0 0 1-1.537-1.508A4.093 4.093 0 0 1 1 30.918V13.073c0-.73.197-1.448.568-2.08.368-.625.9-1.146 1.537-1.506L18.97.534A4.202 4.202 0 0 1 21.039 0c.733 0 1.448.184 2.066.534L38.97 9.487a4.16 4.16 0 0 1 1.522 1.479l.034.042.009.032c.353.62.54 1.322.54 2.033v17.845a4.09 4.09 0 0 1-.567 2.078 4.164 4.164 0 0 1-1.537 1.508l-7.88 4.447-.215-.29.175.312-7.946 4.485a4.22 4.22 0 0 1-2.067.542z"/>
        <path fill="#6E52B6" d="M39.655 21.69l-4.321 2.438-4.19 2.365v-9.595l8.037-4.536.322-.18c.1.285.152.587.152.891v8.617zm0 9.228a2.707 2.707 0 0 1-1.387 2.361l-7.655 4.32-18.617-10.506v-9.595l18.349 10.355.004.002c.028.016.057.025.086.035.014.005.028.013.04.017.09.023.185.023.274 0 .014-.004.027-.012.04-.017.03-.01.06-.019.088-.035l.003-.002 8.775-4.952v8.017zM22.402 42.232a2.821 2.821 0 0 1-2.727 0L3.809 33.28a2.774 2.774 0 0 1-.698-.56l8.354-4.715L29.54 38.205l-7.138 4.027zM2.422 30.918V22.3l8.51-4.802v9.595L2.575 31.81a2.655 2.655 0 0 1-.153-.892zm0-17.845c0-.48.129-.953.374-1.368a2.75 2.75 0 0 1 1.012-.994l7.657-4.32L30.08 16.898v9.595L11.769 16.16l-.032-.019-.006-.003h-.003l-.002-.002a.566.566 0 0 0-.116-.048l-.01-.002H11.6c-.001-.002-.003 0-.004-.002a.533.533 0 0 0-.127-.017h-.004l-.01.001a.52.52 0 0 0-.111.015l-.013.002-.002.001c-.01.002-.02.007-.027.01a.515.515 0 0 0-.072.03c-.01.003-.02.005-.028.011l-.003.001h-.001L2.422 21.09v-8.017zM19.675 1.758a2.824 2.824 0 0 1 2.727 0l15.866 8.953c.263.15.498.34.698.562l-8.353 4.714-18.076-10.2 7.138-4.029zM40.2 11.176l-.001-.002a3.806 3.806 0 0 0-1.404-1.376L22.929.845a3.914 3.914 0 0 0-3.782 0L11.2 5.33 3.28 9.8a3.803 3.803 0 0 0-1.404 1.377 3.73 3.73 0 0 0-.52 1.897v17.845c0 .665.18 1.32.519 1.895v.002a3.804 3.804 0 0 0 1.405 1.377l15.866 8.954a3.86 3.86 0 0 0 3.782 0l7.948-4.485.016-.009c.008-.005.016-.008.024-.014l7.88-4.446a3.8 3.8 0 0 0 1.404-1.377 3.744 3.744 0 0 0 .518-1.897V13.073c0-.665-.18-1.32-.518-1.897z"/>
    </g>
</svg>
